<svg xmlns="http://www.w3.org/2000/svg" viewBox="0 0 50 50"><defs><style>.cls-1{fill:#7f4d27;}</style></defs><title>アセット 41</title><g id="レイヤー_2" data-name="レイヤー 2"><g id="レイヤー_1-2" data-name="レイヤー 1"><g id="Border"><line class="cls-1" x1="9.95" y1="3.01" x2="8.61" y2="3.01"/><polyline class="cls-1" points="8.61 3.01 0 3.01 0 0 50 0 50 3.01 9.95 3.01"/><rect class="cls-1" y="47" width="50" height="3"/><rect class="cls-1" width="3" height="50"/><rect class="cls-1" x="47" width="3" height="50"/></g><g id="Mark"><polygon class="cls-1" points="23.45 47.8 17.63 46.91 24.74 37.86 23.45 47.8"/><path class="cls-1" d="M40.25,3.06,25.46,37.4c.62-6.37,2-25.26,2.65-36.06"/><polygon class="cls-1" points="26.75 47.8 32.56 46.91 25.46 37.86 26.75 47.8"/><path class="cls-1" d="M10,3.06,24.74,37.4c-.62-6.37-2-25.26-2.65-36.06"/></g></g></g></svg>